<?xml version="1.0" standalone="no"?>
<!DOCTYPE svg PUBLIC "-//W3C//DTD SVG 20010904//EN"
 "http://www.w3.org/TR/2001/REC-SVG-20010904/DTD/svg10.dtd">
<svg version="1.0" xmlns="http://www.w3.org/2000/svg"
 width="700.000000pt" height="700.000000pt" viewBox="0 0 700.000000 700.000000"
 preserveAspectRatio="xMidYMid meet">
<metadata>
Created by potrace 1.11, written by Peter Selinger 2001-2013
</metadata>
<g transform="translate(0.000000,700.000000) scale(0.100000,-0.100000)"
fill="#000000" stroke="none">
<path d="M1755 6478 c-187 -93 -342 -172 -345 -174 -2 -3 74 -83 170 -179
l173 -173 -344 -172 c-189 -95 -346 -174 -349 -176 -2 -3 74 -83 170 -179
l173 -173 -344 -172 c-189 -95 -346 -174 -349 -176 -2 -3 74 -83 170 -179
l173 -173 -344 -172 c-189 -95 -346 -174 -349 -176 -2 -3 74 -83 170 -179
l173 -173 -353 -177 -353 -177 7 -137 c36 -770 294 -1455 775 -2061 97 -122
399 -424 521 -521 546 -434 1153 -684 1845 -761 154 -17 556 -17 710 0 692 77
1299 327 1845 761 122 97 424 399 521 521 481 606 739 1291 775 2061 l7 137
-353 177 -353 177 173 173 c96 96 172 176 170 179 -3 2 -160 81 -349 176
l-344 172 173 173 c96 96 172 176 170 179 -3 2 -160 81 -349 176 l-344 172
173 173 c96 96 172 176 170 179 -3 2 -160 81 -349 176 l-344 172 173 173 c96
96 172 176 170 179 -3 2 -159 81 -347 175 l-343 171 -350 -175 -350 -175 -350
175 -350 175 -350 -175 -350 -175 -350 175 c-192 96 -351 175 -352 174 -2 0
-156 -77 -343 -171z m1960 -468 c995 -92 1825 -734 2160 -1669 84 -234 145
-568 145 -788 l0 -53 -559 0 c-528 0 -559 1 -555 18 4 14 -57 50 -313 186
-175 93 -320 170 -322 172 -2 2 15 22 39 44 27 25 53 40 69 40 14 0 158 -16
319 -35 162 -19 305 -35 318 -35 20 0 24 5 24 33 l0 33 -326 38 -327 38 -36
36 c-20 21 -44 42 -54 47 -15 8 69 31 365 100 382 90 383 90 380 115 -2 14 -7
29 -12 33 -4 5 -209 -39 -456 -97 -246 -58 -449 -104 -450 -103 -1 1 171 94
383 207 211 113 389 208 395 212 8 4 7 15 -2 37 -7 17 -14 31 -16 31 -2 0
-201 -106 -444 -235 l-440 -235 -148 10 c-81 5 -239 10 -352 10 -113 0 -271
-5 -352 -10 l-148 -10 -440 235 c-243 129 -442 235 -444 235 -2 0 -9 -14 -16
-31 -9 -22 -10 -33 -2 -37 6 -4 184 -99 395 -212 212 -113 384 -206 383 -207
-1 -1 -204 45 -450 103 -247 58 -452 102 -456 97 -5 -4 -10 -19 -12 -33 -3
-25 -2 -25 380 -115 296 -69 380 -92 365 -100 -10 -5 -34 -26 -54 -47 l-36
-36 -327 -38 -326 -38 0 -33 c0 -28 4 -33 24 -33 13 0 156 16 318 35 161 19
305 35 319 35 16 0 42 -15 69 -40 24 -22 41 -42 39 -44 -2 -2 -147 -79 -322
-172 -256 -136 -317 -172 -313 -186 4 -17 -27 -18 -555 -18 l-559 0 0 53 c0
220 61 554 145 788 387 1081 1461 1773 2590 1669z m-797 -2245 c119 -65 255
-129 462 -216 l115 -48 -660 -1 -660 0 305 164 c168 90 309 164 313 165 4 1
61 -28 125 -64z m1597 -100 l310 -165 -660 0 -660 1 125 52 c212 89 350 155
460 217 58 33 107 59 110 60 3 0 145 -74 315 -165z m-1575 -1043 c0 -4 -137
-144 -305 -312 -168 -168 -305 -309 -305 -315 0 -13 352 -365 365 -365 5 0
199 189 431 421 l421 421 569 -678 c313 -373 576 -687 585 -697 14 -18 21 -14
147 93 83 70 130 116 125 123 -4 7 -251 303 -550 659 -299 356 -543 650 -543
653 0 3 594 5 1320 5 1122 0 1320 -2 1320 -14 0 -25 -41 -148 -91 -274 -324
-813 -958 -1447 -1775 -1773 -228 -90 -483 -156 -764 -195 -176 -25 -604 -25
-780 0 -281 39 -536 105 -764 195 -817 326 -1451 960 -1775 1773 -50 126 -91
249 -91 274 0 12 185 14 1230 14 677 0 1230 -3 1230 -8z"/>
<path d="M2747 5546 c-219 -90 -325 -361 -206 -525 17 -24 49 -49 83 -66 48
-23 65 -27 123 -23 267 16 457 348 312 547 -62 87 -194 115 -312 67z"/>
<path d="M4022 5544 c-266 -134 -93 -593 231 -612 58 -4 75 0 123 23 135 66
172 225 90 391 -65 131 -186 215 -321 222 -60 3 -77 0 -123 -24z"/>
</g>
</svg>
